<svg width="175" height="53" viewBox="0 0 175 53" fill="none" xmlns="http://www.w3.org/2000/svg">
<path d="M0 0H175V37C175 45.8366 167.837 53 159 53H16C7.16345 53 0 45.8366 0 37V0Z" fill="url(#paint0_linear_561_2)"/>
<g filter="url(#filter0_d_561_2)">
<path d="M42.4961 16.2852H42.3594C42.1178 16.2852 41.9287 16.2008 41.792 16.0322C41.6553 15.859 41.5527 15.6745 41.4844 15.4785L40.1855 11.7324H40.0078V17.4336C40.0078 17.7572 39.9531 18.0169 39.8438 18.2129C39.7344 18.4043 39.4837 18.5 39.0918 18.5C38.6543 18.5 38.374 18.4066 38.251 18.2197C38.1279 18.0329 38.0664 17.7708 38.0664 17.4336V10.4883C38.0664 10.1966 38.0824 9.93457 38.1143 9.70215C38.1507 9.46517 38.2396 9.27832 38.3809 9.1416C38.5267 9.00033 38.7637 8.92969 39.0918 8.92969H40.0215C40.2585 8.92969 40.4453 8.9502 40.582 8.99121C40.7188 9.03223 40.8532 9.16211 40.9854 9.38086C41.0674 9.51302 41.1654 9.7181 41.2793 9.99609C41.3841 10.2604 41.5072 10.5999 41.6484 11.0146C41.7897 11.4294 41.9629 11.9375 42.168 12.5391L42.3457 13.0859H42.5098L42.7285 12.4023C42.8197 12.1152 42.9062 11.8509 42.9883 11.6094C43.0703 11.3633 43.1432 11.1423 43.207 10.9463C43.3392 10.5498 43.4554 10.224 43.5557 9.96875C43.6559 9.70898 43.7471 9.50846 43.8291 9.36719C43.9476 9.15755 44.0729 9.03223 44.2051 8.99121C44.3418 8.9502 44.5241 8.92969 44.752 8.92969H45.75C46.0781 8.92969 46.3128 9.00033 46.4541 9.1416C46.5999 9.27832 46.6888 9.46517 46.7207 9.70215C46.7572 9.93457 46.7754 10.1966 46.7754 10.4883V17.4336C46.7754 17.7708 46.7139 18.0329 46.5908 18.2197C46.4678 18.4066 46.1875 18.5 45.75 18.5C45.3626 18.5 45.112 18.4043 44.998 18.2129C44.8887 18.0169 44.834 17.7572 44.834 17.4336V11.7324H44.6426L43.3574 15.4785C43.2799 15.6745 43.1774 15.859 43.0498 16.0322C42.9268 16.2008 42.7422 16.2852 42.4961 16.2852ZM48.6074 15.7246V11.6367C48.6074 11.1901 48.6712 10.8164 48.7988 10.5156C48.9264 10.2057 49.0905 9.94824 49.291 9.74316C49.4915 9.53809 49.7103 9.37858 49.9473 9.26465C50.0658 9.2054 50.182 9.15527 50.2959 9.11426C50.4144 9.07324 50.5306 9.03678 50.6445 9.00488C50.8724 8.94564 51.0752 8.90918 51.2529 8.89551C51.4352 8.88184 51.5697 8.875 51.6562 8.875H51.8887C51.9753 8.875 52.1097 8.88184 52.292 8.89551C52.4743 8.90918 52.6771 8.94564 52.9004 9.00488C53.1283 9.05957 53.3607 9.14616 53.5977 9.26465C53.8255 9.37402 54.042 9.53581 54.2471 9.75C54.4385 9.95508 54.5957 10.2126 54.7188 10.5225C54.8464 10.8278 54.9102 11.1992 54.9102 11.6367V15.7246C54.9102 16.1758 54.8486 16.5586 54.7256 16.873C54.598 17.1875 54.4385 17.4495 54.2471 17.6592C54.0557 17.8688 53.8392 18.0329 53.5977 18.1514C53.3698 18.2699 53.1374 18.361 52.9004 18.4248C52.6771 18.484 52.4743 18.5205 52.292 18.5342C52.1097 18.5479 51.9753 18.5547 51.8887 18.5547H51.6562C51.5742 18.5547 51.4398 18.5479 51.2529 18.5342C51.0706 18.5205 50.8678 18.484 50.6445 18.4248C50.4212 18.3656 50.1888 18.2744 49.9473 18.1514C49.7103 18.0329 49.4915 17.8688 49.291 17.6592C49.0951 17.4495 48.931 17.1875 48.7988 16.873C48.6712 16.5586 48.6074 16.1758 48.6074 15.7246ZM50.877 11.5273V15.9844C50.8815 16.1439 50.9202 16.292 50.9932 16.4287C51.0524 16.5426 51.1413 16.6452 51.2598 16.7363C51.3828 16.8275 51.556 16.873 51.7793 16.873C51.998 16.873 52.1667 16.8275 52.2852 16.7363C52.4036 16.6452 52.4925 16.5426 52.5518 16.4287C52.6156 16.292 52.6543 16.1439 52.668 15.9844V11.5273C52.6543 11.3678 52.6156 11.2197 52.5518 11.083C52.4925 10.9736 52.4036 10.8734 52.2852 10.7822C52.1667 10.6865 51.998 10.6387 51.7793 10.6387C51.556 10.6387 51.3828 10.6865 51.2598 10.7822C51.1413 10.8734 51.0524 10.9736 50.9932 11.083C50.9202 11.2152 50.8815 11.3633 50.877 11.5273ZM56.5781 16.9141V10.4883C56.5781 10.1966 56.5941 9.93457 56.626 9.70215C56.6624 9.46517 56.7536 9.27832 56.8994 9.1416C57.0452 9.00033 57.2799 8.92969 57.6035 8.92969H59.8594C60.4245 8.95703 60.9258 9.07552 61.3633 9.28516C61.5501 9.3763 61.7324 9.48796 61.9102 9.62012C62.0924 9.75228 62.2542 9.91862 62.3955 10.1191C62.5368 10.3151 62.6507 10.5498 62.7373 10.8232C62.8239 11.0921 62.8672 11.4043 62.8672 11.7598C62.8672 11.9102 62.8444 12.0833 62.7988 12.2793C62.7533 12.4753 62.6781 12.6803 62.5732 12.8945C62.5049 13.0404 62.4023 13.1885 62.2656 13.3389C62.138 13.4801 61.9808 13.61 61.7939 13.7285C61.6117 13.847 61.3952 13.9427 61.1445 14.0156C61.5182 14.1615 61.8418 14.3916 62.1152 14.7061C62.3887 15.0205 62.5254 15.4557 62.5254 16.0117V16.9824C62.5254 17.0371 62.5391 17.0827 62.5664 17.1191C62.5938 17.1556 62.6211 17.1875 62.6484 17.2148C62.7533 17.3197 62.8171 17.4131 62.8398 17.4951C62.8581 17.568 62.8672 17.6341 62.8672 17.6934C62.8672 17.9987 62.7555 18.2197 62.5322 18.3564C62.3089 18.4886 62.056 18.5547 61.7734 18.5547C61.4544 18.5547 61.1559 18.459 60.8779 18.2676C60.5999 18.0716 60.4609 17.8027 60.4609 17.4609V16.0117C60.4609 15.5924 60.3926 15.2575 60.2559 15.0068C60.1191 14.7562 59.8366 14.6309 59.4082 14.6309H58.6426V16.9141C58.6426 17.2148 58.6243 17.486 58.5879 17.7275C58.5514 17.9645 58.4603 18.1536 58.3145 18.2949C58.1732 18.4316 57.9362 18.5 57.6035 18.5C57.2799 18.5 57.0452 18.4316 56.8994 18.2949C56.7536 18.1536 56.6624 17.9645 56.626 17.7275C56.5941 17.486 56.5781 17.2148 56.5781 16.9141ZM58.6426 10.543V13.0996H59.5723C59.8001 13.0905 60.0052 13.0358 60.1875 12.9355C60.3698 12.8398 60.5179 12.6963 60.6318 12.5049C60.7458 12.3135 60.8027 12.0651 60.8027 11.7598C60.8027 11.4863 60.7458 11.2607 60.6318 11.083C60.5225 10.9053 60.3835 10.7754 60.2148 10.6934C60.0508 10.6068 59.8548 10.5566 59.627 10.543H58.6426ZM65.3965 8.92969H68.0762C68.3496 8.92969 68.6048 8.9502 68.8418 8.99121C69.0833 9.02767 69.277 9.11426 69.4229 9.25098C69.5732 9.3877 69.6484 9.60417 69.6484 9.90039C69.6484 10.1966 69.5732 10.4131 69.4229 10.5498C69.277 10.6865 69.0833 10.7754 68.8418 10.8164C68.6048 10.8529 68.3496 10.8711 68.0762 10.8711H66.4492V12.7305H67.3105C67.5794 12.7305 67.8301 12.7487 68.0625 12.7852C68.2949 12.8171 68.4818 12.8991 68.623 13.0312C68.7689 13.1589 68.8418 13.3685 68.8418 13.6602C68.8418 13.9518 68.7689 14.1637 68.623 14.2959C68.4818 14.4235 68.2949 14.5055 68.0625 14.542C67.8301 14.5739 67.5794 14.5898 67.3105 14.5898H66.4492V16.5586H68.0762C68.3496 16.5586 68.6048 16.5768 68.8418 16.6133C69.0833 16.6497 69.277 16.7363 69.4229 16.873C69.5732 17.0052 69.6484 17.2194 69.6484 17.5156C69.6484 17.8164 69.5732 18.0374 69.4229 18.1787C69.2725 18.3154 69.0765 18.4043 68.835 18.4453C68.598 18.4818 68.3451 18.5 68.0762 18.5H65.3965C65.0729 18.5 64.8382 18.4294 64.6924 18.2881C64.5511 18.1468 64.4622 17.9577 64.4258 17.7207C64.3893 17.4837 64.3711 17.2194 64.3711 16.9277V10.502C64.3711 10.2103 64.3893 9.94596 64.4258 9.70898C64.4622 9.47201 64.5511 9.28288 64.6924 9.1416C64.8382 9.00033 65.0729 8.92969 65.3965 8.92969ZM42.4961 41.2852H42.3594C42.1178 41.2852 41.9287 41.2008 41.792 41.0322C41.6553 40.859 41.5527 40.6745 41.4844 40.4785L40.1855 36.7324H40.0078V42.4336C40.0078 42.7572 39.9531 43.0169 39.8438 43.2129C39.7344 43.4043 39.4837 43.5 39.0918 43.5C38.6543 43.5 38.374 43.4066 38.251 43.2197C38.1279 43.0329 38.0664 42.7708 38.0664 42.4336V35.4883C38.0664 35.1966 38.0824 34.9346 38.1143 34.7021C38.1507 34.4652 38.2396 34.2783 38.3809 34.1416C38.5267 34.0003 38.7637 33.9297 39.0918 33.9297H40.0215C40.2585 33.9297 40.4453 33.9502 40.582 33.9912C40.7188 34.0322 40.8532 34.1621 40.9854 34.3809C41.0674 34.513 41.1654 34.7181 41.2793 34.9961C41.3841 35.2604 41.5072 35.5999 41.6484 36.0146C41.7897 36.4294 41.9629 36.9375 42.168 37.5391L42.3457 38.0859H42.5098L42.7285 37.4023C42.8197 37.1152 42.9062 36.8509 42.9883 36.6094C43.0703 36.3633 43.1432 36.1423 43.207 35.9463C43.3392 35.5498 43.4554 35.224 43.5557 34.9688C43.6559 34.709 43.7471 34.5085 43.8291 34.3672C43.9476 34.1576 44.0729 34.0322 44.2051 33.9912C44.3418 33.9502 44.5241 33.9297 44.752 33.9297H45.75C46.0781 33.9297 46.3128 34.0003 46.4541 34.1416C46.5999 34.2783 46.6888 34.4652 46.7207 34.7021C46.7572 34.9346 46.7754 35.1966 46.7754 35.4883V42.4336C46.7754 42.7708 46.7139 43.0329 46.5908 43.2197C46.4678 43.4066 46.1875 43.5 45.75 43.5C45.3626 43.5 45.112 43.4043 44.998 43.2129C44.8887 43.0169 44.834 42.7572 44.834 42.4336V36.7324H44.6426L43.3574 40.4785C43.2799 40.6745 43.1774 40.859 43.0498 41.0322C42.9268 41.2008 42.7422 41.2852 42.4961 41.2852ZM48.6074 40.7246V36.6367C48.6074 36.1901 48.6712 35.8164 48.7988 35.5156C48.9264 35.2057 49.0905 34.9482 49.291 34.7432C49.4915 34.5381 49.7103 34.3786 49.9473 34.2646C50.0658 34.2054 50.182 34.1553 50.2959 34.1143C50.4144 34.0732 50.5306 34.0368 50.6445 34.0049C50.8724 33.9456 51.0752 33.9092 51.2529 33.8955C51.4352 33.8818 51.5697 33.875 51.6562 33.875H51.8887C51.9753 33.875 52.1097 33.8818 52.292 33.8955C52.4743 33.9092 52.6771 33.9456 52.9004 34.0049C53.1283 34.0596 53.3607 34.1462 53.5977 34.2646C53.8255 34.374 54.042 34.5358 54.2471 34.75C54.4385 34.9551 54.5957 35.2126 54.7188 35.5225C54.8464 35.8278 54.9102 36.1992 54.9102 36.6367V40.7246C54.9102 41.1758 54.8486 41.5586 54.7256 41.873C54.598 42.1875 54.4385 42.4495 54.2471 42.6592C54.0557 42.8688 53.8392 43.0329 53.5977 43.1514C53.3698 43.2699 53.1374 43.361 52.9004 43.4248C52.6771 43.484 52.4743 43.5205 52.292 43.5342C52.1097 43.5479 51.9753 43.5547 51.8887 43.5547H51.6562C51.5742 43.5547 51.4398 43.5479 51.2529 43.5342C51.0706 43.5205 50.8678 43.484 50.6445 43.4248C50.4212 43.3656 50.1888 43.2744 49.9473 43.1514C49.7103 43.0329 49.4915 42.8688 49.291 42.6592C49.0951 42.4495 48.931 42.1875 48.7988 41.873C48.6712 41.5586 48.6074 41.1758 48.6074 40.7246ZM50.877 36.5273V40.9844C50.8815 41.1439 50.9202 41.292 50.9932 41.4287C51.0524 41.5426 51.1413 41.6452 51.2598 41.7363C51.3828 41.8275 51.556 41.873 51.7793 41.873C51.998 41.873 52.1667 41.8275 52.2852 41.7363C52.4036 41.6452 52.4925 41.5426 52.5518 41.4287C52.6156 41.292 52.6543 41.1439 52.668 40.9844V36.5273C52.6543 36.3678 52.6156 36.2197 52.5518 36.083C52.4925 35.9736 52.4036 35.8734 52.2852 35.7822C52.1667 35.6865 51.998 35.6387 51.7793 35.6387C51.556 35.6387 51.3828 35.6865 51.2598 35.7822C51.1413 35.8734 51.0524 35.9736 50.9932 36.083C50.9202 36.2152 50.8815 36.3633 50.877 36.5273ZM56.5781 41.9141V35.4883C56.5781 35.1966 56.5941 34.9346 56.626 34.7021C56.6624 34.4652 56.7536 34.2783 56.8994 34.1416C57.0452 34.0003 57.2799 33.9297 57.6035 33.9297H59.8594C60.4245 33.957 60.9258 34.0755 61.3633 34.2852C61.5501 34.3763 61.7324 34.488 61.9102 34.6201C62.0924 34.7523 62.2542 34.9186 62.3955 35.1191C62.5368 35.3151 62.6507 35.5498 62.7373 35.8232C62.8239 36.0921 62.8672 36.4043 62.8672 36.7598C62.8672 36.9102 62.8444 37.0833 62.7988 37.2793C62.7533 37.4753 62.6781 37.6803 62.5732 37.8945C62.5049 38.0404 62.4023 38.1885 62.2656 38.3389C62.138 38.4801 61.9808 38.61 61.7939 38.7285C61.6117 38.847 61.3952 38.9427 61.1445 39.0156C61.5182 39.1615 61.8418 39.3916 62.1152 39.7061C62.3887 40.0205 62.5254 40.4557 62.5254 41.0117V41.9824C62.5254 42.0371 62.5391 42.0827 62.5664 42.1191C62.5938 42.1556 62.6211 42.1875 62.6484 42.2148C62.7533 42.3197 62.8171 42.4131 62.8398 42.4951C62.8581 42.568 62.8672 42.6341 62.8672 42.6934C62.8672 42.9987 62.7555 43.2197 62.5322 43.3564C62.3089 43.4886 62.056 43.5547 61.7734 43.5547C61.4544 43.5547 61.1559 43.459 60.8779 43.2676C60.5999 43.0716 60.4609 42.8027 60.4609 42.4609V41.0117C60.4609 40.5924 60.3926 40.2575 60.2559 40.0068C60.1191 39.7562 59.8366 39.6309 59.4082 39.6309H58.6426V41.9141C58.6426 42.2148 58.6243 42.486 58.5879 42.7275C58.5514 42.9645 58.4603 43.1536 58.3145 43.2949C58.1732 43.4316 57.9362 43.5 57.6035 43.5C57.2799 43.5 57.0452 43.4316 56.8994 43.2949C56.7536 43.1536 56.6624 42.9645 56.626 42.7275C56.5941 42.486 56.5781 42.2148 56.5781 41.9141ZM58.6426 35.543V38.0996H59.5723C59.8001 38.0905 60.0052 38.0358 60.1875 37.9355C60.3698 37.8398 60.5179 37.6963 60.6318 37.5049C60.7458 37.3135 60.8027 37.0651 60.8027 36.7598C60.8027 36.4863 60.7458 36.2607 60.6318 36.083C60.5225 35.9053 60.3835 35.7754 60.2148 35.6934C60.0508 35.6068 59.8548 35.5566 59.627 35.543H58.6426ZM65.3965 33.9297H68.0762C68.3496 33.9297 68.6048 33.9502 68.8418 33.9912C69.0833 34.0277 69.277 34.1143 69.4229 34.251C69.5732 34.3877 69.6484 34.6042 69.6484 34.9004C69.6484 35.1966 69.5732 35.4131 69.4229 35.5498C69.277 35.6865 69.0833 35.7754 68.8418 35.8164C68.6048 35.8529 68.3496 35.8711 68.0762 35.8711H66.4492V37.7305H67.3105C67.5794 37.7305 67.8301 37.7487 68.0625 37.7852C68.2949 37.8171 68.4818 37.8991 68.623 38.0312C68.7689 38.1589 68.8418 38.3685 68.8418 38.6602C68.8418 38.9518 68.7689 39.1637 68.623 39.2959C68.4818 39.4235 68.2949 39.5055 68.0625 39.542C67.8301 39.5739 67.5794 39.5898 67.3105 39.5898H66.4492V41.5586H68.0762C68.3496 41.5586 68.6048 41.5768 68.8418 41.6133C69.0833 41.6497 69.277 41.7363 69.4229 41.873C69.5732 42.0052 69.6484 42.2194 69.6484 42.5156C69.6484 42.8164 69.5732 43.0374 69.4229 43.1787C69.2725 43.3154 69.0765 43.4043 68.835 43.4453C68.598 43.4818 68.3451 43.5 68.0762 43.5H65.3965C65.0729 43.5 64.8382 43.4294 64.6924 43.2881C64.5511 43.1468 64.4622 42.9577 64.4258 42.7207C64.3893 42.4837 64.3711 42.2194 64.3711 41.9277V35.502C64.3711 35.2103 64.3893 34.946 64.4258 34.709C64.4622 34.472 64.5511 34.2829 64.6924 34.1416C64.8382 34.0003 65.0729 33.9297 65.3965 33.9297Z" fill="white"/>
<path d="M75.5684 8.92969H78.2344C78.5078 8.92969 78.763 8.95247 79 8.99805C79.2415 9.04362 79.4352 9.13932 79.5811 9.28516C79.7314 9.42643 79.8066 9.64518 79.8066 9.94141C79.8066 10.2376 79.7314 10.4587 79.5811 10.6045C79.4352 10.7458 79.2415 10.8392 79 10.8848C78.763 10.9303 78.5078 10.9531 78.2344 10.9531H76.6074V12.7305H77.4688C77.7422 12.7305 77.9974 12.751 78.2344 12.792C78.4759 12.8285 78.6696 12.9196 78.8154 13.0654C78.9658 13.2067 79.041 13.4323 79.041 13.7422C79.041 14.0521 78.9681 14.2799 78.8223 14.4258C78.6764 14.5671 78.4827 14.6582 78.2412 14.6992C78.0042 14.7357 77.7467 14.7539 77.4688 14.7539H76.6074V16.9277C76.6074 17.224 76.5892 17.4906 76.5527 17.7275C76.5163 17.9645 76.4251 18.1536 76.2793 18.2949C76.1335 18.4316 75.8965 18.5 75.5684 18.5C75.2402 18.5 75.0033 18.4316 74.8574 18.2949C74.7116 18.1582 74.6204 17.9714 74.584 17.7344C74.5475 17.4974 74.5293 17.2285 74.5293 16.9277V10.502C74.5293 10.2057 74.5475 9.93913 74.584 9.70215C74.6204 9.46517 74.7116 9.27832 74.8574 9.1416C75.0033 9.00033 75.2402 8.92969 75.5684 8.92969ZM80.9551 15.6973V10.4883C80.9551 10.1966 80.9801 9.93457 81.0303 9.70215C81.085 9.46517 81.1921 9.27832 81.3516 9.1416C81.5156 9.00033 81.7617 8.92969 82.0898 8.92969C82.4271 8.92969 82.6755 8.99805 82.835 9.13477C82.999 9.27148 83.1038 9.45833 83.1494 9.69531C83.1995 9.92773 83.2246 10.1921 83.2246 10.4883V15.875C83.2383 16.071 83.2793 16.2487 83.3477 16.4082C83.4115 16.5586 83.5072 16.6862 83.6348 16.791C83.7669 16.8913 83.931 16.9414 84.127 16.9414C84.3275 16.9414 84.4938 16.8913 84.626 16.791C84.7581 16.6908 84.8538 16.5632 84.9131 16.4082C84.986 16.2441 85.0247 16.0664 85.0293 15.875V10.4883C85.0293 10.1921 85.0521 9.92773 85.0977 9.69531C85.1478 9.45833 85.2526 9.27148 85.4121 9.13477C85.5762 8.99805 85.8268 8.92969 86.1641 8.92969C86.4967 8.92969 86.7428 9.00033 86.9023 9.1416C87.0618 9.27832 87.1667 9.46517 87.2168 9.70215C87.2715 9.93457 87.2988 10.1966 87.2988 10.4883V15.6973C87.2988 16.1712 87.2236 16.5859 87.0732 16.9414C86.9229 17.2923 86.7064 17.5885 86.4238 17.8301C85.8587 18.3132 85.0931 18.5547 84.127 18.5547C83.1699 18.5547 82.4066 18.3086 81.8369 17.8164C81.5589 17.5749 81.3424 17.2764 81.1875 16.9209C81.0326 16.5654 80.9551 16.1576 80.9551 15.6973ZM92.3301 9.77734L94.5039 15.6699H94.668V9.99609C94.668 9.67253 94.7227 9.41504 94.832 9.22363C94.946 9.02767 95.1966 8.92969 95.584 8.92969C96.0169 8.92969 96.2926 9.02311 96.4111 9.20996C96.5342 9.39681 96.5957 9.65885 96.5957 9.99609V16.9277C96.5957 17.224 96.5775 17.4928 96.541 17.7344C96.5091 17.9714 96.4225 18.1582 96.2812 18.2949C96.14 18.4316 95.9076 18.5 95.584 18.5H94.6816C94.4219 18.5 94.21 18.4385 94.0459 18.3154C93.8818 18.1924 93.752 18.042 93.6562 17.8643C93.5605 17.6865 93.4831 17.5156 93.4238 17.3516L91.3594 11.7598H91.1953V17.4336C91.1953 17.7572 91.1406 18.0169 91.0312 18.2129C90.9219 18.4043 90.6712 18.5 90.2793 18.5C89.8418 18.5 89.5615 18.4066 89.4385 18.2197C89.3154 18.0329 89.2539 17.7708 89.2539 17.4336V10.502C89.2539 10.2057 89.2699 9.93913 89.3018 9.70215C89.3382 9.46517 89.4294 9.27832 89.5752 9.1416C89.721 9.00033 89.9557 8.92969 90.2793 8.92969H91.1816C91.4095 8.92969 91.5941 8.97526 91.7354 9.06641C91.8812 9.15299 91.9997 9.2487 92.0908 9.35352C92.182 9.46289 92.2617 9.60417 92.3301 9.77734ZM75.5273 33.9297H77.5098C78.3711 33.9297 79.0706 34.137 79.6084 34.5518C79.8773 34.7614 80.0869 35.0212 80.2373 35.3311C80.3877 35.641 80.4629 36.0033 80.4629 36.418V40.6562C80.4629 41.0117 80.4242 41.3239 80.3467 41.5928C80.2692 41.8617 80.1689 42.0964 80.0459 42.2969C79.9183 42.4928 79.7747 42.6615 79.6152 42.8027C79.4557 42.944 79.2939 43.0579 79.1299 43.1445C78.7471 43.3542 78.3027 43.4727 77.7969 43.5H75.5273C75.1992 43.5 74.9622 43.4316 74.8164 43.2949C74.6706 43.1582 74.5794 42.9714 74.543 42.7344C74.5065 42.4974 74.4883 42.2285 74.4883 41.9277V35.4883C74.4883 35.1921 74.5065 34.9277 74.543 34.6953C74.5794 34.4583 74.6706 34.2715 74.8164 34.1348C74.9622 33.998 75.1992 33.9297 75.5273 33.9297ZM77.4551 35.5293H76.5664V41.873H77.4551C77.6419 41.8685 77.8174 41.8229 77.9814 41.7363C78.1364 41.6589 78.2617 41.5426 78.3574 41.3877C78.4577 41.2282 78.5078 41.0254 78.5078 40.7793V36.7461C78.5078 36.4772 78.4577 36.2539 78.3574 36.0762C78.2617 35.8984 78.1364 35.7663 77.9814 35.6797C77.8265 35.5931 77.651 35.543 77.4551 35.5293ZM82.1992 41.9277V35.502C82.1992 35.2103 82.2243 34.946 82.2744 34.709C82.3245 34.472 82.4294 34.2829 82.5889 34.1416C82.7529 34.0003 83.0013 33.9297 83.334 33.9297C83.6667 33.9297 83.9128 34.0003 84.0723 34.1416C84.2363 34.2829 84.3434 34.472 84.3936 34.709C84.4437 34.946 84.4688 35.2103 84.4688 35.502V41.9277C84.4688 42.224 84.4437 42.4928 84.3936 42.7344C84.348 42.9714 84.2432 43.1582 84.0791 43.2949C83.9196 43.4316 83.6712 43.5 83.334 43.5C83.0059 43.5 82.7598 43.4316 82.5957 43.2949C82.4362 43.1536 82.3291 42.9645 82.2744 42.7275C82.2243 42.4906 82.1992 42.224 82.1992 41.9277ZM88.3242 36.3359C88.3288 36.5273 88.3835 36.7005 88.4883 36.8555C88.5977 37.0059 88.7412 37.1494 88.9189 37.2861C89.0648 37.4001 89.2676 37.5345 89.5273 37.6895C89.7871 37.8444 90.0127 37.9788 90.2041 38.0928C90.4365 38.234 90.6644 38.3913 90.8877 38.5645C91.111 38.7331 91.3115 38.9245 91.4893 39.1387C91.667 39.3529 91.8105 39.5944 91.9199 39.8633C92.0293 40.1322 92.0885 40.4375 92.0977 40.7793V40.834C92.0977 41.1986 92.0521 41.5244 91.9609 41.8115C91.7786 42.3538 91.4824 42.7572 91.0723 43.0215C90.8626 43.1582 90.653 43.263 90.4434 43.3359C90.2201 43.4134 89.9945 43.4681 89.7666 43.5C89.5433 43.5319 89.3314 43.5501 89.1309 43.5547H89.0625C88.6842 43.5547 88.3447 43.516 88.0439 43.4385C87.7523 43.361 87.5016 43.2585 87.292 43.1309C87.0824 42.9987 86.9092 42.8483 86.7725 42.6797C86.6312 42.5111 86.5195 42.3356 86.4375 42.1533C86.3555 41.9756 86.2962 41.7979 86.2598 41.6201C86.2233 41.4424 86.2051 41.276 86.2051 41.1211C86.2051 40.8112 86.2985 40.5788 86.4854 40.4238C86.6768 40.2689 86.9069 40.1914 87.1758 40.1914C87.4355 40.1914 87.6748 40.2712 87.8936 40.4307C88.1169 40.5856 88.2331 40.8112 88.2422 41.1074C88.2513 41.4492 88.3288 41.6839 88.4746 41.8115C88.6204 41.9346 88.8301 41.9961 89.1035 41.9961C89.3997 41.987 89.6299 41.9118 89.7939 41.7705C89.9626 41.6292 90.0469 41.3763 90.0469 41.0117C90.0469 40.6973 89.9535 40.4193 89.7666 40.1777C89.5843 39.9362 89.3519 39.7152 89.0693 39.5146C88.7868 39.3096 88.4928 39.1113 88.1875 38.9199C87.8685 38.7148 87.5677 38.5007 87.2852 38.2773C87.0026 38.0495 86.7725 37.792 86.5947 37.5049C86.417 37.2178 86.3236 36.8828 86.3145 36.5V36.3906C86.319 35.903 86.3828 35.4974 86.5059 35.1738C86.6335 34.8503 86.8203 34.5928 87.0664 34.4014C87.3079 34.21 87.6064 34.0755 87.9619 33.998C88.3174 33.916 88.7253 33.875 89.1855 33.875H89.3633C89.7734 33.875 90.1289 33.9206 90.4297 34.0117C90.7214 34.1029 90.9629 34.2191 91.1543 34.3604C91.3503 34.5016 91.5052 34.6611 91.6191 34.8389C91.7285 35.012 91.8105 35.1875 91.8652 35.3652C91.9199 35.5384 91.9541 35.7002 91.9678 35.8506C91.9814 36.001 91.9883 36.1217 91.9883 36.2129C91.9883 36.4818 91.8903 36.7005 91.6943 36.8691C91.5029 37.0332 91.2682 37.1152 90.9902 37.1152C90.7806 37.1152 90.5755 37.0378 90.375 36.8828C90.1745 36.7279 90.0742 36.5592 90.0742 36.377C90.0742 36.0033 90.0059 35.7435 89.8691 35.5977C89.737 35.4518 89.541 35.3789 89.2812 35.3789C88.9805 35.3789 88.7458 35.4336 88.5771 35.543C88.4085 35.6523 88.3242 35.9167 88.3242 36.3359ZM96.3359 33.875C96.8464 33.875 97.2793 33.932 97.6348 34.0459C97.9993 34.1598 98.3047 34.3079 98.5508 34.4902C98.7969 34.6725 98.9951 34.8776 99.1455 35.1055C99.2959 35.3424 99.4121 35.5771 99.4941 35.8096C99.5716 36.0465 99.6217 36.2744 99.6445 36.4932C99.6719 36.7119 99.6855 36.901 99.6855 37.0605C99.6855 37.2884 99.6195 37.4889 99.4873 37.6621C99.3551 37.8353 99.0566 37.9219 98.5918 37.9219C98.4414 37.9219 98.2705 37.9059 98.0791 37.874C97.8923 37.8421 97.7305 37.7783 97.5938 37.6826C97.457 37.5824 97.3887 37.4342 97.3887 37.2383C97.3887 36.7507 97.3203 36.3656 97.1836 36.083C97.0514 35.7959 96.7689 35.6523 96.3359 35.6523C96.1126 35.6523 95.9395 35.7002 95.8164 35.7959C95.6979 35.887 95.6113 35.9873 95.5566 36.0967C95.4883 36.238 95.4518 36.3861 95.4473 36.541V40.875C95.4518 41.0618 95.4883 41.2373 95.5566 41.4014C95.6113 41.5335 95.6979 41.6543 95.8164 41.7637C95.9395 41.873 96.1126 41.9277 96.3359 41.9277C96.7552 41.9277 97.0355 41.7682 97.1768 41.4492C97.318 41.1257 97.3887 40.7428 97.3887 40.3008C97.3887 40.1048 97.4753 39.9521 97.6484 39.8428C97.8262 39.7288 98.1406 39.6719 98.5918 39.6719C99.002 39.6719 99.2868 39.7425 99.4463 39.8838C99.6058 40.0251 99.6855 40.1823 99.6855 40.3555C99.6855 40.8568 99.6012 41.3057 99.4326 41.7021C99.2686 42.0941 99.0316 42.4268 98.7217 42.7002C98.0928 43.2607 97.2565 43.541 96.2129 43.541C96.1354 43.541 96.0033 43.5342 95.8164 43.5205C95.6341 43.5068 95.4268 43.4704 95.1943 43.4111C94.9665 43.3519 94.7318 43.263 94.4902 43.1445C94.2578 43.0306 94.0391 42.8643 93.834 42.6455C93.638 42.4313 93.474 42.167 93.3418 41.8525C93.2142 41.5381 93.1504 41.153 93.1504 40.6973V36.8828C93.1504 36.5091 93.196 36.1787 93.2871 35.8916C93.3783 35.5999 93.499 35.3493 93.6494 35.1396C93.7952 34.9255 93.9639 34.7477 94.1553 34.6064C94.3467 34.4652 94.5426 34.3467 94.7432 34.251C95.2035 34.0368 95.7344 33.9115 96.3359 33.875ZM100.834 40.7246V36.6367C100.834 36.1901 100.898 35.8164 101.025 35.5156C101.153 35.2057 101.317 34.9482 101.518 34.7432C101.718 34.5381 101.937 34.3786 102.174 34.2646C102.292 34.2054 102.409 34.1553 102.522 34.1143C102.641 34.0732 102.757 34.0368 102.871 34.0049C103.099 33.9456 103.302 33.9092 103.479 33.8955C103.662 33.8818 103.796 33.875 103.883 33.875H104.115C104.202 33.875 104.336 33.8818 104.519 33.8955C104.701 33.9092 104.904 33.9456 105.127 34.0049C105.355 34.0596 105.587 34.1462 105.824 34.2646C106.052 34.374 106.269 34.5358 106.474 34.75C106.665 34.9551 106.822 35.2126 106.945 35.5225C107.073 35.8278 107.137 36.1992 107.137 36.6367V40.7246C107.137 41.1758 107.075 41.5586 106.952 41.873C106.825 42.1875 106.665 42.4495 106.474 42.6592C106.282 42.8688 106.066 43.0329 105.824 43.1514C105.596 43.2699 105.364 43.361 105.127 43.4248C104.904 43.484 104.701 43.5205 104.519 43.5342C104.336 43.5479 104.202 43.5547 104.115 43.5547H103.883C103.801 43.5547 103.666 43.5479 103.479 43.5342C103.297 43.5205 103.094 43.484 102.871 43.4248C102.648 43.3656 102.415 43.2744 102.174 43.1514C101.937 43.0329 101.718 42.8688 101.518 42.6592C101.322 42.4495 101.158 42.1875 101.025 41.873C100.898 41.5586 100.834 41.1758 100.834 40.7246ZM103.104 36.5273V40.9844C103.108 41.1439 103.147 41.292 103.22 41.4287C103.279 41.5426 103.368 41.6452 103.486 41.7363C103.609 41.8275 103.783 41.873 104.006 41.873C104.225 41.873 104.393 41.8275 104.512 41.7363C104.63 41.6452 104.719 41.5426 104.778 41.4287C104.842 41.292 104.881 41.1439 104.895 40.9844V36.5273C104.881 36.3678 104.842 36.2197 104.778 36.083C104.719 35.9736 104.63 35.8734 104.512 35.7822C104.393 35.6865 104.225 35.6387 104.006 35.6387C103.783 35.6387 103.609 35.6865 103.486 35.7822C103.368 35.8734 103.279 35.9736 103.22 36.083C103.147 36.2152 103.108 36.3633 103.104 36.5273ZM108.805 40.6973V35.4883C108.805 35.1966 108.83 34.9346 108.88 34.7021C108.935 34.4652 109.042 34.2783 109.201 34.1416C109.365 34.0003 109.611 33.9297 109.939 33.9297C110.277 33.9297 110.525 33.998 110.685 34.1348C110.849 34.2715 110.953 34.4583 110.999 34.6953C111.049 34.9277 111.074 35.1921 111.074 35.4883V40.875C111.088 41.071 111.129 41.2487 111.197 41.4082C111.261 41.5586 111.357 41.6862 111.484 41.791C111.617 41.8913 111.781 41.9414 111.977 41.9414C112.177 41.9414 112.343 41.8913 112.476 41.791C112.608 41.6908 112.703 41.5632 112.763 41.4082C112.836 41.2441 112.874 41.0664 112.879 40.875V35.4883C112.879 35.1921 112.902 34.9277 112.947 34.6953C112.997 34.4583 113.102 34.2715 113.262 34.1348C113.426 33.998 113.676 33.9297 114.014 33.9297C114.346 33.9297 114.592 34.0003 114.752 34.1416C114.911 34.2783 115.016 34.4652 115.066 34.7021C115.121 34.9346 115.148 35.1966 115.148 35.4883V40.6973C115.148 41.1712 115.073 41.5859 114.923 41.9414C114.772 42.2923 114.556 42.5885 114.273 42.8301C113.708 43.3132 112.943 43.5547 111.977 43.5547C111.02 43.5547 110.256 43.3086 109.687 42.8164C109.409 42.5749 109.192 42.2764 109.037 41.9209C108.882 41.5654 108.805 41.1576 108.805 40.6973ZM120.18 34.7773L122.354 40.6699H122.518V34.9961C122.518 34.6725 122.572 34.415 122.682 34.2236C122.796 34.0277 123.046 33.9297 123.434 33.9297C123.867 33.9297 124.142 34.0231 124.261 34.21C124.384 34.3968 124.445 34.6589 124.445 34.9961V41.9277C124.445 42.224 124.427 42.4928 124.391 42.7344C124.359 42.9714 124.272 43.1582 124.131 43.2949C123.99 43.4316 123.757 43.5 123.434 43.5H122.531C122.271 43.5 122.06 43.4385 121.896 43.3154C121.731 43.1924 121.602 43.042 121.506 42.8643C121.41 42.6865 121.333 42.5156 121.273 42.3516L119.209 36.7598H119.045V42.4336C119.045 42.7572 118.99 43.0169 118.881 43.2129C118.771 43.4043 118.521 43.5 118.129 43.5C117.691 43.5 117.411 43.4066 117.288 43.2197C117.165 43.0329 117.104 42.7708 117.104 42.4336V35.502C117.104 35.2057 117.119 34.9391 117.151 34.7021C117.188 34.4652 117.279 34.2783 117.425 34.1416C117.571 34.0003 117.805 33.9297 118.129 33.9297H119.031C119.259 33.9297 119.444 33.9753 119.585 34.0664C119.731 34.153 119.849 34.2487 119.94 34.3535C120.032 34.4629 120.111 34.6042 120.18 34.7773ZM127.016 33.9297H130.488C130.762 33.9297 131.017 33.9502 131.254 33.9912C131.491 34.0277 131.682 34.1143 131.828 34.251C131.974 34.3877 132.047 34.6042 132.047 34.9004C132.047 35.1921 131.974 35.4062 131.828 35.543C131.682 35.6797 131.491 35.7686 131.254 35.8096C131.017 35.8506 130.762 35.8711 130.488 35.8711H129.791V41.9414C129.791 42.2331 129.773 42.4974 129.736 42.7344C129.7 42.9714 129.609 43.1582 129.463 43.2949C129.322 43.4316 129.085 43.5 128.752 43.5C128.424 43.5 128.187 43.4316 128.041 43.2949C127.895 43.1582 127.804 42.9714 127.768 42.7344C127.731 42.4974 127.713 42.2331 127.713 41.9414V35.8711H127.016C126.747 35.8711 126.492 35.8506 126.25 35.8096C126.013 35.7686 125.822 35.6797 125.676 35.543C125.53 35.4062 125.457 35.1921 125.457 34.9004C125.457 34.6042 125.53 34.3877 125.676 34.251C125.822 34.1143 126.013 34.0277 126.25 33.9912C126.492 33.9502 126.747 33.9297 127.016 33.9297ZM135.902 35.4746V37.1562L135.561 39.3438C135.561 39.6536 135.513 39.9225 135.417 40.1504C135.326 40.3783 135.114 40.4922 134.781 40.4922C134.449 40.4922 134.234 40.3783 134.139 40.1504C134.048 39.9225 134.002 39.6536 134.002 39.3438L133.646 37.1289V35.4609C133.646 35.0462 133.724 34.6908 133.879 34.3945C134.038 34.0938 134.339 33.9434 134.781 33.9434C135.228 33.9434 135.526 34.096 135.677 34.4014C135.827 34.7067 135.902 35.0645 135.902 35.4746ZM135.902 42.3789C135.902 42.7663 135.804 43.0534 135.608 43.2402C135.412 43.4225 135.137 43.5137 134.781 43.5137C134.025 43.5137 133.646 43.1354 133.646 42.3789C133.646 41.987 133.744 41.7021 133.94 41.5244C134.136 41.3467 134.417 41.2578 134.781 41.2578C135.16 41.2578 135.44 41.3467 135.622 41.5244C135.809 41.7021 135.902 41.987 135.902 42.3789Z" fill="#4A628A"/>
</g>
<defs>
<filter id="filter0_d_561_2" x="34.0664" y="8.875" width="105.836" height="42.6797" filterUnits="userSpaceOnUse" color-interpolation-filters="sRGB">
<feFlood flood-opacity="0" result="BackgroundImageFix"/>
<feColorMatrix in="SourceAlpha" type="matrix" values="0 0 0 0 0 0 0 0 0 0 0 0 0 0 0 0 0 0 127 0" result="hardAlpha"/>
<feOffset dy="4"/>
<feGaussianBlur stdDeviation="2"/>
<feComposite in2="hardAlpha" operator="out"/>
<feColorMatrix type="matrix" values="0 0 0 0 0 0 0 0 0 0 0 0 0 0 0 0 0 0 0.25 0"/>
<feBlend mode="normal" in2="BackgroundImageFix" result="effect1_dropShadow_561_2"/>
<feBlend mode="normal" in="SourceGraphic" in2="effect1_dropShadow_561_2" result="shape"/>
</filter>
<linearGradient id="paint0_linear_561_2" x1="0" y1="0" x2="110.813" y2="114.902" gradientUnits="userSpaceOnUse">
<stop stop-color="#B9E5E8"/>
<stop offset="1" stop-color="#DFF2EB"/>
</linearGradient>
</defs>
</svg>
