<svg width="88" height="29" viewBox="0 0 88 29" fill="none" xmlns="http://www.w3.org/2000/svg">
<g clip-path="url(#clip0_523_228)">
<g clip-path="url(#clip1_523_228)">
<path d="M6.49992 8.33337H9.49992V11.2929L7.99992 12.7929L6.49992 11.2929V8.33337ZM1.83325 16V13H4.79281L6.29281 14.5L4.79281 16H1.83325ZM9.49992 20.6667H6.49992V17.7071L7.99992 16.2071L9.49992 17.7071V20.6667ZM11.207 13H14.1666V16H11.207L9.70703 14.5L11.207 13Z" stroke="#FD0A80"/>
</g>
<path d="M22.5938 9.0625C22.901 9.0625 23.1693 9.15885 23.3984 9.35156C23.6328 9.54427 23.75 9.78125 23.75 10.0625C23.75 10.1927 23.737 10.3099 23.7109 10.4141C23.6901 10.487 23.6771 10.5365 23.6719 10.5625C23.4948 11.2552 23.3125 11.9557 23.125 12.6641C22.9427 13.3724 22.7552 14.0885 22.5625 14.8125C22.3698 15.5365 22.1797 16.2526 21.9922 16.9609C21.8099 17.6693 21.6302 18.3698 21.4531 19.0625C21.375 19.2448 21.2708 19.401 21.1406 19.5312C21.0312 19.651 20.888 19.7604 20.7109 19.8594C20.5391 19.9531 20.3229 20 20.0625 20H19.8125C19.5521 20 19.3333 19.9531 19.1562 19.8594C18.9792 19.7604 18.8359 19.651 18.7266 19.5312C18.5964 19.3958 18.4948 19.2396 18.4219 19.0625L16.2031 10.5625C16.1823 10.5156 16.1693 10.4661 16.1641 10.4141C16.138 10.2995 16.125 10.1823 16.125 10.0625C16.125 9.77604 16.237 9.53906 16.4609 9.35156C16.6901 9.15885 16.9635 9.0625 17.2812 9.0625C17.5312 9.0625 17.7318 9.11719 17.8828 9.22656C18.0391 9.33594 18.1615 9.45833 18.25 9.59375C18.349 9.73958 18.4219 9.91667 18.4688 10.125C18.5312 10.375 18.599 10.6589 18.6719 10.9766C18.7448 11.2891 18.8177 11.6146 18.8906 11.9531C18.9635 12.2917 19.0365 12.638 19.1094 12.9922C19.1875 13.3411 19.2604 13.6797 19.3281 14.0078C19.4115 14.3932 19.4922 14.7839 19.5703 15.1797C19.6484 15.5755 19.7292 15.974 19.8125 16.375H20.0625C20.2448 15.5677 20.4167 14.7786 20.5781 14.0078C20.6458 13.6797 20.7161 13.3411 20.7891 12.9922C20.8672 12.638 20.9427 12.2917 21.0156 11.9531C21.0885 11.6146 21.1589 11.2891 21.2266 10.9766C21.2943 10.6589 21.3542 10.375 21.4062 10.125C21.4688 9.91146 21.5443 9.73438 21.6328 9.59375C21.7214 9.45833 21.8411 9.33594 21.9922 9.22656C22.1432 9.11719 22.3438 9.0625 22.5938 9.0625ZM24.2969 16.8281V12.1562C24.2969 11.6458 24.3698 11.2188 24.5156 10.875C24.6615 10.5208 24.849 10.2266 25.0781 9.99219C25.3073 9.75781 25.5573 9.57552 25.8281 9.44531C25.9635 9.3776 26.0964 9.32031 26.2266 9.27344C26.362 9.22656 26.4948 9.1849 26.625 9.14844C26.8854 9.08073 27.1172 9.03906 27.3203 9.02344C27.5286 9.00781 27.6823 9 27.7812 9H28.0469C28.1458 9 28.2995 9.00781 28.5078 9.02344C28.7161 9.03906 28.9479 9.08073 29.2031 9.14844C29.4635 9.21094 29.7292 9.3099 30 9.44531C30.2604 9.57031 30.5078 9.75521 30.7422 10C30.9609 10.2344 31.1406 10.5286 31.2812 10.8828C31.4271 11.2318 31.5 11.6562 31.5 12.1562V16.8281C31.5 17.3438 31.4297 17.7812 31.2891 18.1406C31.1432 18.5 30.9609 18.7995 30.7422 19.0391C30.5234 19.2786 30.276 19.4661 30 19.6016C29.7396 19.737 29.474 19.8411 29.2031 19.9141C28.9479 19.9818 28.7161 20.0234 28.5078 20.0391C28.2995 20.0547 28.1458 20.0625 28.0469 20.0625H27.7812C27.6875 20.0625 27.5339 20.0547 27.3203 20.0391C27.112 20.0234 26.8802 19.9818 26.625 19.9141C26.3698 19.8464 26.1042 19.7422 25.8281 19.6016C25.5573 19.4661 25.3073 19.2786 25.0781 19.0391C24.8542 18.7995 24.6667 18.5 24.5156 18.1406C24.3698 17.7812 24.2969 17.3438 24.2969 16.8281ZM26.8906 12.0312V17.125C26.8958 17.3073 26.9401 17.4766 27.0234 17.6328C27.0911 17.763 27.1927 17.8802 27.3281 17.9844C27.4688 18.0885 27.6667 18.1406 27.9219 18.1406C28.1719 18.1406 28.3646 18.0885 28.5 17.9844C28.6354 17.8802 28.737 17.763 28.8047 17.6328C28.8776 17.4766 28.9219 17.3073 28.9375 17.125V12.0312C28.9219 11.849 28.8776 11.6797 28.8047 11.5234C28.737 11.3984 28.6354 11.2839 28.5 11.1797C28.3646 11.0703 28.1719 11.0156 27.9219 11.0156C27.6667 11.0156 27.4688 11.0703 27.3281 11.1797C27.1927 11.2839 27.0911 11.3984 27.0234 11.5234C26.9401 11.6745 26.8958 11.8438 26.8906 12.0312ZM33.4062 16.7969V10.8438C33.4062 10.5104 33.4349 10.2109 33.4922 9.94531C33.5547 9.67448 33.6771 9.46094 33.8594 9.30469C34.0469 9.14323 34.3281 9.0625 34.7031 9.0625C35.0885 9.0625 35.3724 9.14062 35.5547 9.29688C35.7422 9.45312 35.862 9.66667 35.9141 9.9375C35.9714 10.2031 36 10.5052 36 10.8438V17C36.0156 17.224 36.0625 17.4271 36.1406 17.6094C36.2135 17.7812 36.3229 17.9271 36.4688 18.0469C36.6198 18.1615 36.8073 18.2188 37.0312 18.2188C37.2604 18.2188 37.4505 18.1615 37.6016 18.0469C37.7526 17.9323 37.862 17.7865 37.9297 17.6094C38.013 17.4219 38.0573 17.2188 38.0625 17V10.8438C38.0625 10.5052 38.0885 10.2031 38.1406 9.9375C38.1979 9.66667 38.3177 9.45312 38.5 9.29688C38.6875 9.14062 38.974 9.0625 39.3594 9.0625C39.7396 9.0625 40.0208 9.14323 40.2031 9.30469C40.3854 9.46094 40.5052 9.67448 40.5625 9.94531C40.625 10.2109 40.6562 10.5104 40.6562 10.8438V16.7969C40.6562 17.3385 40.5703 17.8125 40.3984 18.2188C40.2266 18.6198 39.9792 18.9583 39.6562 19.2344C39.0104 19.7865 38.1354 20.0625 37.0312 20.0625C35.9375 20.0625 35.0651 19.7812 34.4141 19.2188C34.0964 18.9427 33.849 18.6016 33.6719 18.1953C33.4948 17.7891 33.4062 17.3229 33.4062 16.7969Z" fill="#FD0A80"/>
<path d="M50.375 15.9531V19.2812C50.375 19.4635 50.3255 19.6406 50.2266 19.8125C50.1276 19.9792 49.9167 20.0625 49.5938 20.0625C49.25 20.0625 49.0182 19.9818 48.8984 19.8203C48.7786 19.6589 48.7188 19.4792 48.7188 19.2812V18.8125C48.4688 19.1823 48.1484 19.4844 47.7578 19.7188C47.3724 19.9479 46.8958 20.0625 46.3281 20.0625C46.2344 20.0625 46.0807 20.0547 45.8672 20.0391C45.6589 20.0234 45.4245 19.9818 45.1641 19.9141C44.9036 19.8464 44.6354 19.7448 44.3594 19.6094C44.0938 19.4792 43.8438 19.2891 43.6094 19.0391C43.3854 18.7943 43.1979 18.4922 43.0469 18.1328C42.901 17.7734 42.8281 17.3333 42.8281 16.8125V12.4375C42.8281 12.0104 42.8802 11.6328 42.9844 11.3047C43.0885 10.9714 43.2266 10.6849 43.3984 10.4453C43.5651 10.2005 43.7578 9.9974 43.9766 9.83594C44.1953 9.67448 44.4193 9.53906 44.6484 9.42969C45.1745 9.1849 45.7812 9.04167 46.4688 9C47.0521 9 47.5469 9.0651 47.9531 9.19531C48.3646 9.32552 48.7135 9.49479 49 9.70312C49.2865 9.91146 49.5156 10.1458 49.6875 10.4062C49.8594 10.6771 49.9922 10.9453 50.0859 11.2109C50.1797 11.4818 50.2396 11.7422 50.2656 11.9922C50.2969 12.2422 50.3125 12.4583 50.3125 12.6406C50.3125 12.9062 50.237 13.1354 50.0859 13.3281C49.9401 13.5156 49.599 13.6094 49.0625 13.6094C48.8854 13.6094 48.6875 13.5911 48.4688 13.5547C48.25 13.5182 48.0625 13.4453 47.9062 13.3359C47.75 13.2266 47.6719 13.0625 47.6719 12.8438C47.6719 12.2865 47.5938 11.849 47.4375 11.5312C47.2865 11.2083 46.9635 11.0469 46.4688 11.0469C46.2135 11.0469 46.0156 11.099 45.875 11.2031C45.7396 11.3073 45.6406 11.4219 45.5781 11.5469C45.5 11.7083 45.4583 11.875 45.4531 12.0469V17.0469C45.4531 17.3802 45.5677 17.6641 45.7969 17.8984C46.0312 18.1328 46.3229 18.25 46.6719 18.25C47.0885 18.25 47.4297 18.0833 47.6953 17.75C47.9661 17.4115 48.1823 17.0312 48.3438 16.6094H47.5938C47.4479 16.5938 47.3151 16.5547 47.1953 16.4922C47.0911 16.4401 46.9974 16.362 46.9141 16.2578C46.8359 16.1536 46.7969 16.0104 46.7969 15.8281C46.7969 15.6302 46.8359 15.4792 46.9141 15.375C46.9974 15.2656 47.0911 15.1849 47.1953 15.1328C47.3255 15.0703 47.4583 15.0365 47.5938 15.0312H49.625C49.776 15.0312 49.9375 15.0938 50.1094 15.2188C50.2865 15.3385 50.375 15.5833 50.375 15.9531ZM57.3906 10.5312L59.0156 16.0469C59.0208 16.224 59.026 16.4036 59.0312 16.5859C59.0417 16.7682 59.0495 16.9505 59.0547 17.1328C59.0703 17.4974 59.0781 17.8542 59.0781 18.2031V18.4375C59.0781 18.7344 59.0573 19 59.0156 19.2344C58.9792 19.4688 58.8854 19.6562 58.7344 19.7969C58.5833 19.9323 58.3385 20 58 20C57.6615 20 57.4141 19.9323 57.2578 19.7969C57.1016 19.6562 57.0026 19.4688 56.9609 19.2344C56.9245 19 56.9062 18.7344 56.9062 18.4375V17.3438H53.7812V18.4375C53.7812 18.7344 53.7604 19 53.7188 19.2344C53.6823 19.4688 53.5859 19.6562 53.4297 19.7969C53.2786 19.9323 53.0312 20 52.6875 20C52.3438 20 52.0964 19.9323 51.9453 19.7969C51.7943 19.6562 51.7005 19.4688 51.6641 19.2344C51.6276 19 51.6094 18.7344 51.6094 18.4375V18.2031C51.6094 18.0208 51.612 17.7969 51.6172 17.5312C51.6224 17.2656 51.6276 16.9974 51.6328 16.7266C51.6432 16.4557 51.651 16.2292 51.6562 16.0469C51.7865 15.5938 51.9193 15.138 52.0547 14.6797C52.1901 14.2161 52.3307 13.7526 52.4766 13.2891C52.6224 12.8255 52.763 12.3646 52.8984 11.9062C53.0339 11.4479 53.1667 10.9896 53.2969 10.5312C53.4167 10.099 53.5859 9.7474 53.8047 9.47656C54.0286 9.20052 54.4115 9.0625 54.9531 9.0625H55.7344C56.2917 9.0625 56.6745 9.20052 56.8828 9.47656C57.0911 9.7474 57.2604 10.099 57.3906 10.5312ZM55.4375 11.0938H55.2656L54.1094 15.2812H56.5938L55.4375 11.0938ZM65.9375 17.4688H65.7812C65.5052 17.4688 65.2891 17.3724 65.1328 17.1797C64.9766 16.9818 64.8594 16.7708 64.7812 16.5469L63.2969 12.2656H63.0938V18.7812C63.0938 19.151 63.0312 19.4479 62.9062 19.6719C62.7812 19.8906 62.4948 20 62.0469 20C61.5469 20 61.2266 19.8932 61.0859 19.6797C60.9453 19.4661 60.875 19.1667 60.875 18.7812V10.8438C60.875 10.5104 60.8932 10.2109 60.9297 9.94531C60.9714 9.67448 61.0729 9.46094 61.2344 9.30469C61.401 9.14323 61.6719 9.0625 62.0469 9.0625H63.1094C63.3802 9.0625 63.5938 9.08594 63.75 9.13281C63.9062 9.17969 64.0599 9.32812 64.2109 9.57812C64.3047 9.72917 64.4167 9.96354 64.5469 10.2812C64.6667 10.5833 64.8073 10.9714 64.9688 11.4453C65.1302 11.9193 65.3281 12.5 65.5625 13.1875L65.7656 13.8125H65.9531L66.2031 13.0312C66.3073 12.7031 66.4062 12.401 66.5 12.125C66.5938 11.8438 66.6771 11.5911 66.75 11.3672C66.901 10.9141 67.0339 10.5417 67.1484 10.25C67.263 9.95312 67.3672 9.72396 67.4609 9.5625C67.5964 9.32292 67.7396 9.17969 67.8906 9.13281C68.0469 9.08594 68.2552 9.0625 68.5156 9.0625H69.6562C70.0312 9.0625 70.2995 9.14323 70.4609 9.30469C70.6276 9.46094 70.7292 9.67448 70.7656 9.94531C70.8073 10.2109 70.8281 10.5104 70.8281 10.8438V18.7812C70.8281 19.1667 70.7578 19.4661 70.6172 19.6797C70.4766 19.8932 70.1562 20 69.6562 20C69.2135 20 68.9271 19.8906 68.7969 19.6719C68.6719 19.4479 68.6094 19.151 68.6094 18.7812V12.2656H68.3906L66.9219 16.5469C66.8333 16.7708 66.7161 16.9818 66.5703 17.1797C66.4297 17.3724 66.2188 17.4688 65.9375 17.4688ZM74.375 9.0625H77.4375C77.75 9.0625 78.0417 9.08594 78.3125 9.13281C78.5885 9.17448 78.8099 9.27344 78.9766 9.42969C79.1484 9.58594 79.2344 9.83333 79.2344 10.1719C79.2344 10.5104 79.1484 10.7578 78.9766 10.9141C78.8099 11.0703 78.5885 11.1719 78.3125 11.2188C78.0417 11.2604 77.75 11.2812 77.4375 11.2812H75.5781V13.4062H76.5625C76.8698 13.4062 77.1562 13.4271 77.4219 13.4688C77.6875 13.5052 77.901 13.599 78.0625 13.75C78.2292 13.8958 78.3125 14.1354 78.3125 14.4688C78.3125 14.8021 78.2292 15.0443 78.0625 15.1953C77.901 15.3411 77.6875 15.4349 77.4219 15.4766C77.1562 15.513 76.8698 15.5312 76.5625 15.5312H75.5781V17.7812H77.4375C77.75 17.7812 78.0417 17.8021 78.3125 17.8438C78.5885 17.8854 78.8099 17.9844 78.9766 18.1406C79.1484 18.2917 79.2344 18.5365 79.2344 18.875C79.2344 19.2188 79.1484 19.4714 78.9766 19.6328C78.8047 19.7891 78.5807 19.8906 78.3047 19.9375C78.0339 19.9792 77.7448 20 77.4375 20H74.375C74.0052 20 73.737 19.9193 73.5703 19.7578C73.4089 19.5964 73.3073 19.3802 73.2656 19.1094C73.224 18.8385 73.2031 18.5365 73.2031 18.2031V10.8594C73.2031 10.526 73.224 10.224 73.2656 9.95312C73.3073 9.68229 73.4089 9.46615 73.5703 9.30469C73.737 9.14323 74.0052 9.0625 74.375 9.0625ZM82.9219 11.8125C82.9271 12.0312 82.9896 12.2292 83.1094 12.4062C83.2344 12.5781 83.3984 12.7422 83.6016 12.8984C83.7682 13.0286 84 13.1823 84.2969 13.3594C84.5938 13.5365 84.8516 13.6901 85.0703 13.8203C85.3359 13.9818 85.5964 14.1615 85.8516 14.3594C86.1068 14.5521 86.3359 14.7708 86.5391 15.0156C86.7422 15.2604 86.9062 15.5365 87.0312 15.8438C87.1562 16.151 87.224 16.5 87.2344 16.8906V16.9531C87.2344 17.3698 87.1823 17.7422 87.0781 18.0703C86.8698 18.6901 86.5312 19.151 86.0625 19.4531C85.8229 19.6094 85.5833 19.7292 85.3438 19.8125C85.0885 19.901 84.8307 19.9635 84.5703 20C84.3151 20.0365 84.0729 20.0573 83.8438 20.0625H83.7656C83.3333 20.0625 82.9453 20.0182 82.6016 19.9297C82.2682 19.8411 81.9818 19.724 81.7422 19.5781C81.5026 19.4271 81.3047 19.2552 81.1484 19.0625C80.987 18.8698 80.8594 18.6693 80.7656 18.4609C80.6719 18.2578 80.6042 18.0547 80.5625 17.8516C80.5208 17.6484 80.5 17.4583 80.5 17.2812C80.5 16.9271 80.6068 16.6615 80.8203 16.4844C81.0391 16.3073 81.3021 16.2188 81.6094 16.2188C81.9062 16.2188 82.1797 16.3099 82.4297 16.4922C82.6849 16.6693 82.8177 16.9271 82.8281 17.2656C82.8385 17.6562 82.9271 17.9245 83.0938 18.0703C83.2604 18.2109 83.5 18.2812 83.8125 18.2812C84.151 18.2708 84.4141 18.1849 84.6016 18.0234C84.7943 17.862 84.8906 17.5729 84.8906 17.1562C84.8906 16.7969 84.7839 16.4792 84.5703 16.2031C84.362 15.9271 84.0964 15.6745 83.7734 15.4453C83.4505 15.2109 83.1146 14.9844 82.7656 14.7656C82.401 14.5312 82.0573 14.2865 81.7344 14.0312C81.4115 13.7708 81.1484 13.4766 80.9453 13.1484C80.7422 12.8203 80.6354 12.4375 80.625 12V11.875C80.6302 11.3177 80.7031 10.8542 80.8438 10.4844C80.9896 10.1146 81.2031 9.82031 81.4844 9.60156C81.7604 9.38281 82.1016 9.22917 82.5078 9.14062C82.9141 9.04688 83.3802 9 83.9062 9H84.1094C84.5781 9 84.9844 9.05208 85.3281 9.15625C85.6615 9.26042 85.9375 9.39323 86.1562 9.55469C86.3802 9.71615 86.5573 9.89844 86.6875 10.1016C86.8125 10.2995 86.9062 10.5 86.9688 10.7031C87.0312 10.901 87.0703 11.0859 87.0859 11.2578C87.1016 11.4297 87.1094 11.5677 87.1094 11.6719C87.1094 11.9792 86.9974 12.2292 86.7734 12.4219C86.5547 12.6094 86.2865 12.7031 85.9688 12.7031C85.7292 12.7031 85.4948 12.6146 85.2656 12.4375C85.0365 12.2604 84.9219 12.0677 84.9219 11.8594C84.9219 11.4323 84.8438 11.1354 84.6875 10.9688C84.5365 10.8021 84.3125 10.7188 84.0156 10.7188C83.6719 10.7188 83.4036 10.7812 83.2109 10.9062C83.0182 11.0312 82.9219 11.3333 82.9219 11.8125Z" fill="white"/>
</g>
<defs>
<clipPath id="clip0_523_228">
<rect width="88" height="29" fill="white"/>
</clipPath>
<clipPath id="clip1_523_228">
<rect width="16" height="16" fill="white" transform="translate(0 6.5)"/>
</clipPath>
</defs>
</svg>
